<svg xmlns="http://www.w3.org/2000/svg" style="display: none;">
  
    <symbol id="icon-calendar" viewBox="0 0 512 512">
      <path d="m352 256l-32 0 0 64 32 0z m-64 0l-32 0 0 64 32 0z m64-96l-32 0 0 64 32 0z m64 96l-32 0 0 64 32 0z m-128 96l-32 0 0 64 32 0z m96-352l-32 0 0 64 32 0z m-256 0l-32 0 0 64 32 0z m288 160l-32 0 0 64 32 0z m-128 0l-32 0 0 64 32 0z m-128 192l-32 0 0 64 32 0z m-64-96l-32 0 0 64 32 0z m64 0l-32 0 0 64 32 0z m256-224l0 64-96 0 0-64-160 0 0 64-96 0 0-64-64 0 0 448 480 0 0-448z m32 416l-416 0 0-320 416 0z m-352-96l-32 0 0 64 32 0z m128-192l-32 0 0 64 32 0z m0 192l-32 0 0 64 32 0z m-64-192l-32 0 0 64 32 0z m64 96l-32 0 0 64 32 0z m128 96l-32 0 0 64 32 0z"/>
    </symbol>
  
    <symbol id="icon-gear" viewBox="0 0 512 512">
      <path d="m256 175c-45 0-81 36-81 81 0 45 36 81 81 81 45 0 81-36 81-81 0-45-36-81-81-81z m162 128l-14 35 26 51 3 7-36 36-59-28-35 14-18 55-2 7-51 0-22-62-36-14-51 26-7 3-36-36 28-59-14-35-55-18-7-2 0-51 62-22 14-36-26-51-3-7 36-36 59 28 35-14 18-55 2-7 51 0 22 62 36 14 51-26 7-3 36 36-28 59 14 35 55 18 7 2 0 51z"/>
    </symbol>
  
    <symbol id="icon-graph" viewBox="0 0 512 512">
      <path d="m352 128l-96 0 0 320 96 0z m128 96l-96 0 0 224 96 0z m-448 256l0-64 32 0 0-32-32 0 0-64 32 0 0-32-32 0 0-64 32 0 0-32-32 0 0-64 32 0 0-32-32 0 0-64 32 0 0-32-64 0 0 512 512 0 0-32z m192-192l-96 0 0 160 96 0z"/>
    </symbol>
  
    <symbol id="icon-globe" viewBox="0 0 512 512">
      <path d="m256 64c-106 0-192 86-192 192 0 106 86 192 192 192 13 0 26-1 38-4-5-2-6-20-1-30 6-11 23-40 6-49-17-10-12-14-23-25-10-11-6-13-6-16-3-9 10-24 10-26 1-1 1-7 1-8-1-2-8-7-10-7-2 0-3 3-5 3-3 1-14-7-17-8-2-2-3-7-7-10-3-4-4-1-9-3-5-2-22-8-35-13-13-6-14-13-14-18 0-6-8-13-12-18-3-6-4-13-5-12-2 2 7 22 5 22-1 1-4-5-8-10-3-5 4-2-8-26-12-24 4-36 5-48 1-12 10 5 5-3-5-8 0-25-3-31-4-6-25 7-25 7 0-6 18-16 31-25 14-9 22-2 32 1 11 4 11 3 8-1-4-3 1-5 10-3 8 1 10 11 23 10 12-1 1 2 3 5 1 4-2 3-11 9-8 6 1 6 15 16 15 11 10-7 9-15-2-8 11-1 11-1 9 6 7 0 13 2 7 2 25 17 25 17-22 12-8 14-5 16 4 3-7 9-7 9-5-5-6 0-9 1-3 2 0 6 0 6-16 3-12 19-12 23 0 4-10 10-12 16-3 5 6 18 2 18-5 1-10-18-36-11-8 2-26 11-17 30 10 18 25-5 31-3 5 3-2 15-1 15 1 0 15 0 16 16 1 16 21 15 25 15 4 1 19-11 21-12 2-1 10-8 28 3 18 10 27 9 33 13 7 4 2 13 8 16 6 2 29-1 35 8 6 10-24 58-33 63-10 5-14 17-23 25-10 8-23 17-35 25-11 6-13 18-18 21 86-19 150-95 150-187 0-106-86-192-192-192z m45 180c-3 1-8 6-21-2-14-8-23-6-24-8 0 0-1-3 5-3 12-2 27 11 30 11 3 0 5-4 11-2 6 2 2 3-1 4z m-63-161c-1-1 1-2 3-4 1-1 0-3 1-4 3-3 17-6 14 1-3 8-16 9-18 7z m34 25c-5-1-16-2-14-4 8-8-3-10-10-11-6 0-9-4-6-4 4-1 17 0 19 2 3 2 15 7 15 10 1 4 0 7-4 7z m40-2c-3 3-22-11-26-14-16-13-24-9-27-11-4-2-2-5 3-10 5-4 19 2 27 3 8 1 18 7 18 15 0 7 9 14 5 17z"/>
    </symbol>
  
    <symbol id="icon-location" viewBox="0 0 512 512">
      <path d="m256 0c-88 0-160 72-160 160 0 89 80 208 160 352 80-144 160-263 160-352 0-88-71-160-160-160z m0 224c-35 0-64-28-64-64 0-35 29-64 64-64 36 0 64 29 64 64 0 36-28 64-64 64z"/>
    </symbol>
  
    <symbol id="icon-ruby" viewBox="0 0 512 512">
      <path d="m384 64l-256 0-128 128 256 256 256-256z m-320 128l96-96 192 0 96 96-192 192z m288-64l-96 0 0 224 160-160z"/>
    </symbol>
  
    <symbol id="icon-rocket" viewBox="0 0 512 512">
      <path d="m358 62c-36 21-74 48-109 83-22 23-40 45-55 65l-89 17-105 105 93 2 66-65c-23 48-25 80-25 80l29 29c0 0 33-3 82-27l-67 68 2 93 105-105 17-89c21-15 42-33 65-55 35-35 62-73 83-109-23-5-44-15-61-31-16-17-26-38-31-61z m35-19c3 23 10 41 22 53 13 13 31 20 54 23 33-67 43-119 43-119 0 0-52 10-119 43z"/>
    </symbol>
  
    <symbol id="icon-map-pin-streamline" viewBox="0 0 512 512">
      <path d="m256 0c-94 0-171 77-171 171c0 90 156 316 162 326l9 12l9-12c6-10 162-236 162-326c0-94-77-171-171-171z m0 472c-33-50-149-229-149-301c0-83 67-150 149-150c82 0 149 67 149 150c0 72-116 251-149 301z m0-376c-41 0-75 33-75 75c0 41 34 74 75 74c41 0 75-33 75-74c0-42-34-75-75-75z m0 128c-29 0-53-24-53-53c0-30 24-54 53-54c29 0 53 24 53 54c0 29-24 53-53 53z"/>
    </symbol>
  
    <symbol id="icon-plus-circle" viewBox="0 0 512 512">
      <path d="m384 274l0-36c0-5-2-10-5-13c-4-4-8-6-13-6l-73 0l0-73c0-5-2-9-6-13c-3-3-8-5-13-5l-36 0c-5 0-10 2-13 5c-4 4-6 8-6 13l0 73l-73 0c-5 0-9 2-13 6c-3 3-5 8-5 13l0 36c0 5 2 10 5 13c4 4 8 6 13 6l73 0l0 73c0 5 2 9 6 13c3 3 8 5 13 5l36 0c5 0 10-2 13-5c4-4 6-8 6-13l0-73l73 0c5 0 9-2 13-6c3-3 5-8 5-13z m91-18c0 40-9 77-29 110c-20 34-46 60-80 80c-33 20-70 29-110 29c-40 0-77-9-110-29c-34-20-60-46-80-80c-20-33-29-70-29-110c0-40 9-77 29-110c20-34 46-60 80-80c33-20 70-29 110-29c40 0 77 9 110 29c34 20 60 46 80 80c20 33 29 70 29 110z"/>
    </symbol>
  
    <symbol id="icon-plus" viewBox="0 0 512 512">
      <path d="m457 210l0 55c0 8-3 14-8 20c-5 5-12 8-19 8l-119 0l0 118c0 8-3 15-8 20c-5 5-12 8-20 8l-54 0c-8 0-15-3-20-8c-5-5-8-12-8-20l0-118l-119 0c-7 0-14-3-19-8c-5-6-8-12-8-20l0-55c0-7 3-14 8-19c5-5 12-8 19-8l119 0l0-119c0-8 3-14 8-19c5-6 12-8 20-8l54 0c8 0 15 2 20 8c5 5 8 11 8 19l0 119l119 0c7 0 14 3 19 8c5 5 8 12 8 19z"/>
    </symbol>
  
    <symbol id="icon-megaphone" viewBox="0 0 512 512">
      <path d="m416 16c-65 0-62 65-352 64-35 0-64 57-64 128 0 71 29 128 64 128 11 0 22 0 32 0l32 144 96 16 32-48-23-102c122 19 134 54 183 54 53 0 96-86 96-192 0-106-43-192-96-192z m-317 225c-20 0-42-1-64-1-2-10-3-21-3-32 0-44 14-96 32-96 20 0 38 0 55-1-14 24-23 58-23 97 0 12 1 23 3 33z m32 2c-2-11-3-23-3-35 0-40 9-75 23-98 78-4 126-14 160-25-14 33-23 76-23 123 0 20 2 39 5 57-36-9-87-18-162-22z m285 109c-6 0-12-3-17-6-8-34-42-209 58-247 14 26 23 65 23 109 0 80-29 144-64 144z"/>
    </symbol>
  
    <symbol id="icon-heart" viewBox="0 0 512 512">
      <path d="m256 432c200-157 192-212 192-256 0-43-36-96-96-96-60 0-96 64-96 64 0 0-36-64-96-64-60 0-96 53-96 96 0 44-7 99 192 256z"/>
    </symbol>
  
    <symbol id="icon-flame" viewBox="0 0 512 512">
      <path d="m217 23c25 67 12 103-16 132-31 32-78 56-112 103-44 63-52 200 109 236-68-35-82-138-9-203-19 63 16 103 59 88 43-14 71 16 70 51-1 24-10 45-35 56 105-18 147-105 147-171 0-87-78-99-39-172-46 4-62 35-58 85 3 33-31 55-57 40-20-12-20-36-2-54 39-38 54-126-57-191z"/>
    </symbol>
  
    <symbol id="icon-dashboard" viewBox="0 0 512 512">
      <path d="m256 232c-31 0-56 25-56 56 0 31 25 56 56 56 31 0 56-25 56-56 0-4-1-8-2-12 41-48 104-122 138-164 12-14-1-28-16-16-43 35-116 97-163 138-4-1-9-2-13-2z m16-104c0-9-7-16-16-16-9 0-16 7-16 16 0 9 7 16 16 16 9 0 16-7 16-16z m96 128c0 9 7 16 16 16 9 0 16-7 16-16 0-9-7-16-16-16-9 0-16 7-16 16z m-176-128c-9 0-16 7-16 16 0 9 7 16 16 16 9 0 16-7 16-16 0-9-7-16-16-16z m-32 64c0-9-7-16-16-16-9 0-16 7-16 16 0 9 7 16 16 16 9 0 16-7 16-16z m-48 64c0 9 7 16 16 16 9 0 16-7 16-16 0-9-7-16-16-16-9 0-16 7-16 16z m224-112c0-9-7-16-16-16-9 0-16 7-16 16 0 9 7 16 16 16 9 0 16-7 16-16z m108 24l-34 45c4 14 6 28 6 43 0 88-72 160-160 160-88 0-160-72-160-160 0-88 72-160 160-160 33 0 64 10 89 27l40-30c-36-28-80-45-129-45-115 0-208 93-208 208 0 115 93 208 208 208 115 0 208-93 208-208 0-31-7-61-20-88z"/>
    </symbol>
  
    <symbol id="icon-plug" viewBox="0 0 512 512">
      <path d="m502 102l-1 0c-12-12-32-12-45 0l-22 23-46-46 23-22c13-13 13-33 0-45l0-1c-13-12-33-12-45 0l-24 24c-31-20-73-17-101 11l-12 12c-55 54-61 139-20 200l-2 2c-31 32-31 82 0 113 6 7 6 17 0 23-6 7-16 6-22 0l-45-44c-31-32-82-32-114-1-31 31-31 82 0 113l5 5c12 12 32 12 44 0l1-1c12-12 12-32 0-45l-4-4c-6-6-7-16-1-22 6-7 17-7 23-1l45 45c31 31 83 32 114 0 31-31 31-81 0-113-7-6-7-16 0-22l2-2c61 41 146 35 200-20l13-12c27-28 30-70 10-101l24-24c12-12 12-32 0-45z m-57 147c-19 19-49 19-68 0l-113-113c-19-19-19-49 0-68 15-15 37-18 55-9l-21 21c-13 12-13 32 0 45l0 0c12 12 32 12 45 0l23-23 45 45-23 23c-12 13-12 33 0 45l1 0c12 13 32 13 44 0l21-20c9 17 6 39-9 54z"/>
    </symbol>
  
    <symbol id="icon-code" viewBox="0 0 512 512">
      <path d="m158 400l-14 14c-2 2-4 3-7 3-2 0-5-1-6-3l-134-133c-1-2-2-4-2-7 0-2 1-4 2-6l134-133c1-2 4-3 6-3 3 0 5 1 7 3l14 14c2 2 3 4 3 6 0 3-1 5-3 7l-112 112 112 113c2 1 3 4 3 6 0 3-1 5-3 7z m169-305l-107 369c0 2-2 4-4 5-2 2-5 2-7 1l-18-5c-2-1-4-2-5-4-1-2-2-5-1-7l107-369c0-3 2-4 4-6 2-1 5-1 7 0l18 4c2 1 4 3 5 5 1 2 2 4 1 7z m188 186l-134 133c-1 2-4 3-6 3-3 0-5-1-7-3l-14-14c-2-2-3-4-3-7 0-2 1-5 3-6l112-113-112-112c-2-2-3-4-3-7 0-2 1-4 3-6l14-14c2-2 4-3 7-3 2 0 5 1 6 3l134 133c1 2 2 4 2 6 0 3-1 5-2 7z"/>
    </symbol>
  
    <symbol id="icon-circle" viewBox="0 0 512 512">
      <path d="m475 256c0 40-9 77-29 110-20 34-46 60-80 80-33 20-70 29-110 29-40 0-77-9-110-29-34-20-60-46-80-80-20-33-29-70-29-110 0-40 9-77 29-110 20-34 46-60 80-80 33-20 70-29 110-29 40 0 77 9 110 29 34 20 60 46 80 80 20 33 29 70 29 110z"/>
    </symbol>
  
    <symbol id="icon-circle-thin" viewBox="0 0 512 512">
      <path d="m256 73c-25 0-48 5-71 15-23 9-42 22-58 39-17 16-30 35-39 58-10 23-15 46-15 71 0 25 5 48 15 71 9 23 22 42 39 58 16 17 35 30 58 39 23 10 46 15 71 15 25 0 48-5 71-15 23-9 42-22 58-39 17-16 30-35 39-58 10-23 15-46 15-71 0-25-5-48-15-71-9-23-22-42-39-58-16-17-35-30-58-39-23-10-46-15-71-15z m219 183c0 40-9 77-29 110-20 34-46 60-80 80-33 20-70 29-110 29-40 0-77-9-110-29-34-20-60-46-80-80-20-33-29-70-29-110 0-40 9-77 29-110 20-34 46-60 80-80 33-20 70-29 110-29 40 0 77 9 110 29 34 20 60 46 80 80 20 33 29 70 29 110z"/>
    </symbol>
  
    <symbol id="icon-empire" viewBox="0 0 512 512">
      <path d="m250 468l0 19c-40-1-77-12-110-31-34-20-61-46-81-79l16-10c6 9 13 19 21 28l19-16c28 32 63 52 105 61l-5 24c13 3 24 4 35 4z m-171-151l-24 8c4 11 9 22 14 32l-16 9c-19-34-28-71-28-110 0-39 9-76 28-110l16 9c-6 11-10 22-14 32l24 8c-7 19-10 40-10 61 0 21 3 41 10 61z m358 50l16 10c-20 33-47 59-81 79-33 19-70 30-110 31l0-19c11 0 22-1 35-4l-5-24c42-9 77-29 105-61l19 16c8-9 15-19 21-28z m-44-158l-66 23c3 8 4 16 4 24 0 8-1 16-4 24l66 23c-6 18-15 34-28 48l-53-46c-11 13-25 21-42 24l14 69c-10 2-19 3-28 3-9 0-18-1-28-3l14-69c-17-3-31-11-42-24l-53 46c-13-14-22-30-28-48l66-23c-3-8-4-16-4-24 0-8 1-16 4-24l-66-23c6-18 15-34 28-48l53 46c11-13 25-21 42-25l-14-68c8-2 18-3 28-3 10 0 20 1 28 3l-14 68c17 4 31 12 42 25l53-46c13 14 22 30 28 48z m-143-184l0 19c-13 0-24 2-35 4l5 24c-42 8-77 28-105 61l-19-16c-7 8-14 17-21 28l-16-10c20-33 47-59 81-79 33-19 70-30 110-31z m237 231c0 39-9 76-28 110l-16-9c5-10 10-21 14-32l-24-8c7-20 10-40 10-61 0-21-3-42-10-61l24-8c-4-10-8-21-14-32l16-9c19 34 28 71 28 110z m-34-121l-16 10c-7-11-14-20-21-28l-19 16c-28-33-63-53-105-61l5-24c-11-2-22-4-35-4l0-19c40 1 77 12 110 31 34 20 61 46 81 79z m46 121c0-33-6-64-19-95-13-30-30-56-52-77-21-22-47-39-77-52-31-13-62-19-95-19-33 0-64 6-95 19-30 13-56 30-77 52-22 21-39 47-52 77-13 31-19 62-19 95 0 33 6 64 19 95 13 30 30 56 52 77 21 22 47 39 77 52 31 13 62 19 95 19 33 0 64-6 95-19 30-13 56-30 77-52 22-21 39-47 52-77 13-31 19-62 19-95z m13 0c0 35-7 68-20 99-14 32-32 59-55 82-23 23-50 41-82 55-31 13-64 20-99 20-35 0-68-7-99-20-32-14-59-32-82-55-23-23-41-50-55-82-13-31-20-64-20-99 0-35 7-68 20-99 14-32 32-59 55-82 23-23 50-41 82-55 31-13 64-20 99-20 35 0 68 7 99 20 32 14 59 32 82 55 23 23 41 50 55 82 13 31 20 64 20 99z"/>
    </symbol>
  
    <symbol id="icon-rebel" viewBox="0 0 512 512">
      <path d="m5 250c2-42 13-80 34-116 20-36 49-67 87-91l1 0c0 0 0 0 0 1-2 1-4 4-8 9-4 5-9 12-15 22-6 10-12 20-17 32-5 11-10 24-13 38-3 15-4 29-4 43 1 15 4 30 11 45 7 16 18 31 31 44 10 10 20 17 29 20 10 4 19 5 26 4 8-2 14-4 20-7 6-3 11-6 14-9l4-5c8-10 13-21 15-33 3-13 4-24 2-35-1-11-3-21-6-31-2-9-5-17-7-23l-4-8c-2-5-5-9-9-14-4-5-8-9-12-12-5-3-9-6-13-8-4-3-7-5-10-6l-4-1 30-33c8 3 15 8 22 15 8 6 13 12 17 17l6 8c0-9-2-19-6-30-3-10-7-19-11-25l-6-9 46-52 46 52c-6 8-11 18-15 29-4 11-6 19-7 26l-1 9c4-7 10-14 18-20 7-7 14-12 19-15l8-5 30 33c-9 2-17 7-25 14-8 7-13 13-17 18l-5 9c-6 10-11 23-14 38-3 15-4 31-2 48 2 18 7 33 16 45 7 9 14 14 22 17 9 3 17 4 25 2 7-2 15-4 21-8 7-3 13-6 17-9l6-5c11-10 20-21 27-33 7-11 12-23 14-34 3-12 4-23 3-35 0-12-2-23-5-34-3-10-7-21-11-30-4-10-8-19-13-27-4-8-9-15-12-21-4-5-8-10-10-13l-4-5c-3-2-3-4-2-4l3 1c7 6 13 10 18 13 4 4 10 8 17 15 8 6 14 11 19 16 4 5 10 11 16 19 7 7 12 15 16 22 4 7 9 15 13 25 5 10 8 19 11 29 3 10 5 21 7 34 2 12 3 25 3 39 0 49-10 93-31 132-21 40-51 70-89 92-38 22-82 33-130 33-36 0-69-7-101-21-31-14-58-33-81-57-22-23-40-51-52-83-13-33-19-66-18-101z"/>
    </symbol>
  
</svg>
